Coordinates
version=1
nRows=26
nColumns=22
inDegrees=yes

Units are S.I. units (second, meters, Newtons, ...)
If the header above contains a line with 'inDegrees', this indicates whether rotational values are in degrees (yes) or radians (no).

endheader
time	pelvis_tilt	pelvis_list	pelvis_rotation	pelvis_tx	pelvis_ty	pelvis_tz	hip_flexion_r	hip_adduction_r	hip_rotation_r	knee_angle_r	ankle_angle_r	subtalar_angle_r	hip_flexion_l	hip_adduction_l	hip_rotation_l	knee_angle_l	ankle_angle_l	subtalar_angle_l	lumbar_extension	lumbar_bending	lumbar_rotation
      4.21000000	     -1.73408075	      0.29986968	     -0.18823497	     -0.64689257	      0.92902779	      0.09717292	      7.28393273	     -2.53894091	      0.06991507	    -40.60644997	     10.33579498	      3.06141230	      7.25934324	      3.15509594	     -9.51320128	    -16.46629753	      9.63065092	     -7.84480875	     -8.23556215	     -4.08840952	      4.71853582
      4.22000000	     -1.89121847	      0.31808253	     -0.28408987	     -0.65182247	      0.92900490	      0.09787590	      6.57103302	     -2.56776737	     -0.02198143	    -40.28932175	     10.29191624	      3.38411827	      7.69901907	      3.11583649	     -9.56262054	    -16.34293127	      9.38287785	     -7.55119581	     -7.91445280	     -4.08492178	      5.01625477
      4.23000000	     -2.04713347	      0.35400468	     -0.37536204	     -0.65680073	      0.92893371	      0.09865531	      5.88610977	     -2.59743428	     -0.12143822	    -39.91202277	     10.24202365	      3.72168771	      8.13962650	      3.08956786	     -9.60292818	    -16.21904420	      9.12672465	     -7.25057663	     -7.61484379	     -4.10996268	      5.29590839
      4.24000000	     -2.19984602	      0.41359376	     -0.46342174	     -0.66182577	      0.92881420	      0.09952484	      5.22539656	     -2.63596027	     -0.23667798	    -39.46098221	     10.16794893	      4.04060979	      8.58063455	      3.07954951	     -9.64290967	    -16.09775612	      8.86922418	     -6.96323573	     -7.33869639	     -4.17473909	      5.54775542
      4.25000000	     -2.34687954	      0.50056719	     -0.54606393	     -0.66691183	      0.92864176	      0.10047115	      4.58471213	     -2.68741300	     -0.36411154	    -38.92374303	     10.05005096	      4.35283426	      9.02368287	      3.08919253	     -9.68642223	    -15.98693534	      8.61580534	     -6.66738126	     -7.09110861	     -4.28140393	      5.77216570
      4.26000000	     -2.48729914	      0.61630818	     -0.62147270	     -0.67207575	      0.92841017	      0.10148460	      3.96109253	     -2.75393345	     -0.50024427	    -38.28661316	      9.87730011	      4.65439337	      9.47303894	      3.11877595	     -9.73685810	    -15.89551893	      8.37424617	     -6.35549896	     -6.87527310	     -4.43019357	      5.96954210
      4.27000000	     -2.62264883	      0.76107379	     -0.68935572	     -0.67733482	      0.92811426	      0.10255681	      3.35589527	     -2.83567492	     -0.64045581	    -37.53889661	      9.63879695	      4.94054439	      9.93304109	      3.16826079	     -9.80083638	    -15.82627670	      8.14932134	     -6.01809833	     -6.69182480	     -4.61919559	      6.13820961
      4.28000000	     -2.75090569	      0.93518201	     -0.74786957	     -0.68270316	      0.92774793	      0.10368339	      2.76489956	     -2.93296806	     -0.78067882	    -36.66901187	      9.34398023	      5.22882445	     10.40794019	      3.23670684	     -9.88827000	    -15.79054707	      7.95091682	     -5.62629497	     -6.54319775	     -4.84880449	      6.27567955
      4.29000000	     -2.87885515	      1.13640911	     -0.79939063	     -0.68818648	      0.92730208	      0.10486546	      2.19688957	     -3.04448889	     -0.92079811	    -35.67253656	      9.00140386	      5.50321677	     10.89778886	      3.32404083	     -9.98739558	    -15.77169853	      7.78449680	     -5.19246689	     -6.41936400	     -5.11480786	      6.39562187
      4.30000000	     -3.00325242	      1.36618635	     -0.84269393	     -0.69380625	      0.92677677	      0.10610037	      1.64984328	     -3.17182550	     -1.05755335	    -34.54852724	      8.65866876	      5.77395891	     11.40823099	      3.43010511	    -10.11227631	    -15.78368957	      7.64673971	     -4.70896264	     -6.32671295	     -5.41844305	      6.48832483
      4.31000000	     -3.12295903	      1.62220282	     -0.88105779	     -0.69957036	      0.92617562	      0.10739104	      1.12555438	     -3.31239596	     -1.18211709	    -33.30439646	      8.37331644	      6.04032882	     11.93624047	      3.55392506	    -10.25330274	    -15.82113448	      7.53126094	     -4.17717103	     -6.26630011	     -5.75676433	      6.55440952
      4.32000000	     -3.24509052	      1.89224467	     -0.91287953	     -0.70545534	      0.92549897	      0.10872878	      0.62848755	     -3.46201835	     -1.33434091	    -31.94270747	      8.20079941	      6.27051562	     12.47696039	      3.68586897	    -10.41308320	    -15.85755571	      7.41092658	     -3.63496707	     -6.22150945	     -6.11460309	      6.62434671
      4.33000000	     -3.35906309	      2.17661491	     -0.94692327	     -0.71147726	      0.92476312	      0.11013365	      0.15635837	     -3.61871975	     -1.49624415	    -30.49595636	      8.22305243	      6.43845434	     13.02551865	      3.82437771	    -10.58603330	    -15.90608509	      7.29357711	     -3.08680994	     -6.20732189	     -6.49252386	      6.68055463
      4.34000000	     -3.46421225	      2.46602857	     -0.98097498	     -0.71762809	      0.92398720	      0.11158282	     -0.28946250	     -3.77726315	     -1.68444749	    -28.99026449	      8.45605288	      6.49750072	     13.57190442	      3.96409520	    -10.76615334	    -15.94793020	      7.17417094	     -2.54880549	     -6.22296897	     -6.87622078	      6.73594993
      4.35000000	     -3.54934455	      2.75076882	     -1.01777299	     -0.72390647	      0.92320924	      0.11309724	     -0.71635154	     -3.92520101	     -1.89760810	    -27.46213012	      8.87518424	      6.39984693	     14.10281501	      4.09408803	    -10.95136308	    -15.98103537	      7.04044674	     -2.00350775	     -6.28223064	     -7.25832123	      6.78563931
      4.36000000	     -3.61601684	      3.01208572	     -1.06109150	     -0.73028309	      0.92243407	      0.11463473	     -1.11365508	     -4.05709581	     -2.19671357	    -25.95708153	      9.50159886	      6.15217048	     14.61226904	      4.19664854	    -11.16589512	    -15.99580463	      6.89697643	     -1.52379537	     -6.37512052	     -7.60737668	      6.86177761
      4.37000000	     -3.64734387	      3.25042806	     -1.10711222	     -0.73676796	      0.92172395	      0.11624631	     -1.51085649	     -4.14888894	     -2.48167193	    -24.47179889	     10.20488703	      5.69050140	     15.08288042	      4.27164241	    -11.37317786	    -15.99763261	      6.72930260	     -1.01285777	     -6.52776935	     -7.93588215	      6.93276876
      4.38000000	     -3.65714416	      3.44550450	     -1.16728746	     -0.74334497	      0.92106342	      0.11788855	     -1.87724119	     -4.19485502	     -2.80012193	    -23.04898623	     10.97840469	      5.13328234	     15.52147404	      4.30049429	    -11.59590516	    -15.97212198	      6.56027660	     -0.56616108	     -6.71594683	     -8.20882696	      7.03610081
      4.39000000	     -3.64465356	      3.59229809	     -1.24472756	     -0.75000043	      0.92047003	      0.11957120	     -2.20931814	     -4.18755626	     -3.13051436	    -21.70229286	     11.77054972	      4.52385933	     15.91565945	      4.27838899	    -11.83215945	    -15.90135102	      6.40098712	     -0.15183027	     -6.93936755	     -8.42405022	      7.16831543
      4.40000000	     -3.61975007	      3.69678272	     -1.33330483	     -0.75675793	      0.91995084	      0.12129853	     -2.51009741	     -4.12252294	     -3.39200455	    -20.40217900	     12.48583277	      3.85613549	     16.28688046	      4.21374508	    -12.04384296	    -15.80355478	      6.23087346	      0.26577117	     -7.19064090	     -8.59171582	      7.31905246
      4.41000000	     -3.60147485	      3.76053964	     -1.43632132	     -0.76360418	      0.91947641	      0.12304241	     -2.74624043	     -4.01149577	     -3.59518767	    -19.17570522	     13.12374994	      3.19954816	     16.64603416	      4.11117816	    -12.23712158	    -15.66307540	      6.08209438	      0.68292437	     -7.44318119	     -8.70984900	      7.48852265
      4.42000000	     -3.60091355	      3.78474936	     -1.55498086	     -0.77055611	      0.91902532	      0.12479074	     -2.89752098	     -3.85960031	     -3.73459295	    -18.03942345	     13.68437296	      2.56620917	     17.01152347	      3.97245471	    -12.39835927	    -15.49077506	      5.96181754	      1.11273422	     -7.68608507	     -8.77805967	      7.68416815
      4.43000000	     -3.62849264	      3.76511191	     -1.69062045	     -0.77761197	      0.91857815	      0.12654467	     -2.94220595	     -3.66563973	     -3.81601075	    -17.01882217	     14.17520823	      1.97127881	     17.39226311	      3.79253087	    -12.52462371	    -15.28283661	      5.88657817	      1.54976903	     -7.90626907	     -8.79290324	      7.90847182
      4.44000000	     -3.69838303	      3.70797336	     -1.83415376	     -0.78474744	      0.91812111	      0.12829991	     -2.86380031	     -3.43465186	     -3.83873174	    -16.12696443	     14.58075676	      1.39161443	     17.79570493	      3.57962835	    -12.61520907	    -15.02672763	      5.86676251	      2.00206136	     -8.08594551	     -8.76131138	      8.12430649
      4.45000000	     -3.80763522	      3.61290744	     -1.98172246	     -0.79195984	      0.91765847	      0.13005003	     -2.65823683	     -3.16744771	     -3.81626324	    -15.38427340	     14.90424657	      0.83016671	     18.23004946	      3.33161570	    -12.66470887	    -14.74699771	      5.90987219	      2.45969644	     -8.23100402	     -8.68342313	      8.32595604
      4.46000000	     -3.94779279	      3.47051279	     -2.12731472	     -0.79921762	      0.91721265	      0.13179236	     -2.32942434	     -2.85367231	     -3.77080435	    -14.81047743	     15.14120606	      0.29319124	     18.68611237	      3.03799300	    -12.67855029	    -14.45038722	      6.01627336	      2.90981408	     -8.35129821	     -8.55037047	      8.50796708
